<svg xmlns="http://www.w3.org/2000/svg" width="165" height="140" viewBox="0 0 165 140">
<g>
<path d="M 75.68 128.28 C73.03,126.32 66.16,122.77 60.42,120.40 C54.67,118.02 48.37,114.86 46.42,113.37 C41.25,109.43 37.22,103.02 35.37,95.81 C33.18,87.27 34.53,80.30 41.58,63.65 L 47.02 50.80 L 46.37 38.64 C45.85,28.81 46.04,25.37 47.39,20.74 C48.62,16.50 49.53,15.00 50.86,15.00 C51.85,15.00 55.90,17.52 59.87,20.60 L 67.08 26.21 L 71.90 24.14 C79.68,20.79 83.75,20.54 90.52,22.97 C98.56,25.86 101.00,26.41 101.00,25.31 C101.00,23.70 113.91,14.84 115.74,15.19 C119.05,15.83 120.24,22.38 119.68,36.86 L 119.16 50.22 L 123.16 59.86 C129.26,74.56 131.02,79.99 131.66,86.07 C132.73,96.20 127.90,107.16 119.58,113.51 C117.62,115.00 111.33,118.16 105.59,120.53 C99.85,122.90 92.76,126.45 89.84,128.42 C86.92,130.39 83.62,131.97 82.51,131.93 C81.41,131.89 78.33,130.25 75.68,128.28 ZM 91.64 124.99 C95.41,122.78 102.24,119.56 106.82,117.83 C120.48,112.66 127.92,104.13 129.63,91.68 C130.49,85.38 128.72,78.50 122.25,63.09 C114.75,45.19 113.46,43.30 100.00,30.48 C96.24,26.90 88.31,23.77 83.00,23.77 C69.40,23.77 54.57,37.78 45.18,59.50 C37.79,76.57 36.79,79.95 36.69,88.00 C36.58,96.58 38.60,102.19 44.01,108.36 C47.71,112.58 50.93,114.41 62.50,118.87 C66.90,120.57 72.75,123.52 75.50,125.43 C78.25,127.33 81.46,128.91 82.64,128.94 C83.82,128.98 87.87,127.19 91.64,124.99 ZM 118.13 32.29 C118.18,24.49 116.70,17.00 115.11,17.00 C114.19,17.00 110.18,21.33 106.54,26.25 L 103.76 30.00 L 107.84 33.96 C110.08,36.14 112.91,39.85 114.12,42.21 L 116.33 46.50 L 117.20 43.50 C117.68,41.85 118.10,36.81 118.13,32.29 ZM 52.56 41.89 C53.44,40.17 55.92,36.87 58.06,34.55 L 61.96 30.32 L 59.04 25.72 C55.85,20.69 52.50,17.00 51.12,17.00 C48.75,17.00 47.30,30.63 48.64,40.36 C49.38,45.80 50.34,46.17 52.56,41.89 ZM 104.06 27.25 C106.39,22.60 106.36,22.42 103.64,24.92 C102.19,26.26 101.00,27.95 101.00,28.67 C101.00,30.90 102.60,30.15 104.06,27.25 ZM 65.00 28.17 C65.00,27.72 63.88,26.29 62.50,25.00 C59.64,22.31 59.27,22.95 61.62,26.54 C63.19,28.94 65.00,29.82 65.00,28.17 ZM 76.97 121.38 C73.96,118.30 67.45,112.73 62.50,109.01 C48.27,98.32 44.00,92.70 44.00,84.66 C44.00,69.19 69.50,40.00 83.01,40.00 C92.69,40.00 109.22,54.54 117.42,70.27 C125.77,86.29 122.28,95.68 102.66,109.92 C98.17,113.18 92.04,118.35 89.03,121.42 C86.03,124.49 83.31,127.00 83.00,127.00 C82.69,127.00 79.97,124.47 76.97,121.38 ZM 103.58 106.82 C118.52,95.51 121.88,88.98 118.59,77.68 C116.84,71.66 114.29,68.47 115.45,73.76 C116.05,76.48 115.65,77.14 111.30,80.58 C102.82,87.31 100.11,90.23 99.42,93.40 C97.36,102.98 90.86,109.00 82.60,109.00 C78.08,109.00 77.31,108.63 73.58,104.72 C71.27,102.30 68.70,98.18 67.65,95.21 C66.27,91.33 64.50,88.88 60.77,85.74 C58.01,83.41 54.05,79.91 51.97,77.96 L 48.19 74.42 L 47.09 78.08 C45.54,83.26 45.76,86.91 47.92,91.50 C50.41,96.80 53.42,99.81 64.35,107.93 C69.38,111.66 75.71,117.07 78.40,119.95 L 83.30 125.18 L 88.45 119.78 C91.27,116.81 98.08,110.98 103.58,106.82 ZM 87.85 106.12 C88.83,105.49 88.36,104.97 86.07,104.17 C84.35,103.57 82.28,103.29 81.47,103.54 C76.40,105.12 76.48,105.06 78.03,106.04 C79.87,107.20 86.05,107.25 87.85,106.12 ZM 93.82 101.70 C95.02,100.41 96.85,95.98 97.94,91.72 C99.02,87.49 100.36,83.20 100.91,82.16 C102.34,79.50 106.48,77.00 109.46,77.00 C111.80,77.00 111.99,76.66 111.88,72.75 C111.73,67.25 110.89,64.02 108.88,61.20 L 107.26 58.92 L 100.38 61.48 C96.27,63.01 92.60,65.13 91.25,66.77 C89.53,68.86 89.01,69.10 89.00,67.79 C89.00,65.10 92.67,62.35 99.78,59.72 L 106.34 57.29 L 101.47 52.62 C96.68,48.03 86.21,41.99 83.09,42.01 C79.65,42.03 71.09,47.00 65.45,52.25 L 59.51 57.78 L 64.95 59.39 C71.08,61.21 76.98,64.85 76.99,66.80 C77.00,67.63 75.82,67.20 73.75,65.64 C71.96,64.28 67.92,62.31 64.76,61.25 C59.47,59.47 58.91,59.44 57.55,60.95 C55.32,63.41 53.00,69.56 53.00,73.00 C53.00,76.11 53.28,76.34 58.38,77.47 C62.89,78.46 66.60,82.90 67.87,88.83 C69.20,95.03 72.50,101.87 74.55,102.66 C75.35,102.96 77.15,102.93 78.55,102.58 L 81.09 101.94 L 78.05 98.24 C75.05,94.61 75.00,94.35 75.00,83.39 C75.00,72.67 74.91,72.21 72.75,71.63 C71.51,71.30 69.49,71.02 68.26,71.01 C66.74,71.00 65.20,69.69 63.44,66.91 C62.02,64.65 61.02,62.64 61.23,62.44 C62.40,61.26 69.92,65.03 73.28,68.47 L 77.21 72.50 L 76.60 82.20 L 76.00 91.90 L 79.06 90.83 C80.74,90.24 83.78,90.03 85.81,90.35 L 89.50 90.95 L 89.16 81.66 C88.83,72.73 88.93,72.24 91.60,69.07 C94.00,66.21 101.42,62.00 104.05,62.00 C105.10,62.00 101.30,68.70 99.68,69.70 C99.07,70.07 96.98,70.64 95.03,70.96 L 91.50 71.53 L 91.00 83.85 C90.51,95.91 90.44,96.23 87.63,98.64 C86.06,100.00 84.93,101.24 85.13,101.40 C86.29,102.36 89.66,103.94 90.58,103.97 C91.17,103.99 92.63,102.96 93.82,101.70 ZM 86.00 97.00 C89.10,93.90 88.42,93.00 83.00,93.00 C80.25,93.00 78.00,93.31 78.00,93.69 C78.00,94.68 82.20,99.00 83.17,99.00 C83.63,99.00 84.90,98.10 86.00,97.00 ZM 64.42 83.66 C63.79,82.02 58.00,77.96 56.38,78.04 C55.90,78.07 57.51,79.85 59.96,82.00 C64.60,86.07 65.47,86.40 64.42,83.66 ZM 106.75 82.06 C110.45,79.15 110.90,77.95 108.03,78.70 C105.84,79.27 101.00,83.75 101.00,85.20 C101.00,86.28 102.30,85.57 106.75,82.06 Z" fill="rgb(212,175,55)"/>
</g>
</svg>